<?xml version="1.0" encoding="UTF-8" standalone="no"?>
<!DOCTYPE svg PUBLIC "-//W3C//DTD SVG 1.1//EN" "http://www.w3.org/Graphics/SVG/1.1/DTD/svg11.dtd">
<!-- Generated by Microsoft Visio, SVG Export Invocation_overhead.svg Page-1 -->
<svg xmlns="http://www.w3.org/2000/svg" xmlns:xlink="http://www.w3.org/1999/xlink" xmlns:ev="http://www.w3.org/2001/xml-events"
		xmlns:v="http://schemas.microsoft.com/visio/2003/SVGExtensions/" width="17.3228in" height="8.26772in"
		viewBox="0 0 1247.24 595.276" xml:space="preserve" color-interpolation-filters="sRGB" class="st16">
	<v:documentProperties v:langID="8192" v:metric="true" v:viewMarkup="false">
		<v:userDefs>
			<v:ud v:nameU="msvNoAutoConnect" v:val="VT0(1):26"/>
		</v:userDefs>
	</v:documentProperties>

	<style type="text/css">
	<![CDATA[
		.st1 {marker-end:url(#mrkr13-6);stroke:#000000;stroke-linecap:round;stroke-linejoin:round;stroke-width:0.75}
		.st2 {fill:#000000;fill-opacity:1;stroke:#000000;stroke-opacity:1;stroke-width:0.22935779816514}
		.st3 {fill:#ffffff;stroke:none;stroke-linecap:butt}
		.st4 {fill:#000000;font-family:Cambria;font-size:1.00001em}
		.st5 {fill:#ffffff;stroke:#ffffff;stroke-linecap:round;stroke-linejoin:round;stroke-width:1.5}
		.st6 {fill:#7f7f7f;stroke:none;stroke-linecap:round;stroke-linejoin:round;stroke-width:2.8333}
		.st7 {fill:#000000;font-family:Cambria;font-size:0.75em}
		.st8 {stroke:#000000;stroke-linecap:round;stroke-linejoin:round;stroke-width:0.75}
		.st9 {fill:#ffffff;stroke:none;stroke-linecap:butt;stroke-width:7.2}
		.st10 {fill:none;stroke:none;stroke-linecap:round;stroke-linejoin:round;stroke-width:0.75}
		.st11 {fill:#000000;font-family:Cambria;font-size:1.5em}
		.st12 {fill:#000000;font-family:Symbol;font-size:1.00001em}
		.st13 {font-size:1em}
		.st14 {font-family:Cambria;font-size:1em;font-style:italic}
		.st15 {fill:none;stroke:#000000;stroke-dasharray:5.25,3.75;stroke-linecap:round;stroke-linejoin:round;stroke-width:0.75}
		.st16 {fill:none;fill-rule:evenodd;font-size:12px;overflow:visible;stroke-linecap:square;stroke-miterlimit:3}
	]]>
	</style>

	<defs id="Markers">
		<g id="lend13">
			<path d="M 3 1 L 0 0 L 3 -1 L 3 1 " style="stroke:none"/>
		</g>
		<marker id="mrkr13-6" class="st2" v:arrowType="13" v:arrowSize="2" v:setback="13.08" refX="-13.08" orient="auto"
				markerUnits="strokeWidth" overflow="visible">
			<use xlink:href="#lend13" transform="scale(-4.36,-4.36) "/>
		</marker>
	</defs>
	<g v:mID="0" v:index="1" v:groupContext="foregroundPage">
		<title>Page-1</title>
		<v:pageProperties v:drawingScale="0.0393701" v:pageScale="0.0393701" v:drawingUnits="24" v:shadowOffsetX="8.50394"
				v:shadowOffsetY="-8.50394"/>
		<v:layer v:name="Azure" v:index="0"/>
		<g id="shape1-1" v:mID="1" v:groupContext="shape" transform="translate(85.0394,-311.811)">
			<title>Sheet.1</title>
			<desc>To to server</desc>
			<v:textBlock v:margins="rect(4,4,4,4)" v:tabSpace="42.5197"/>
			<v:textRect cx="63.7795" cy="595.276" width="127.56" height="0"/>
			<path d="M0 595.28 L117.75 595.28" class="st1"/>
			<rect v:rectContext="textBkgnd" x="32.7629" y="588.061" width="62.0332" height="14.4303" class="st3"/>
			<text x="32.76" y="598.88" class="st4" v:langID="1033"><v:paragraph v:horizAlign="1"/><v:tabList/>To to server</text>		</g>
		<g id="group2-9" transform="translate(42.5197,-303.581)" v:mID="2" v:groupContext="group" v:layerMember="0">
			<title>User (Opaque)</title>
			<desc>Request</desc>
			<g id="shape3-10" v:mID="3" v:groupContext="shape" v:layerMember="0" transform="translate(0.0305026,0)">
				<title>Sheet.3</title>
				<path d="M23.83 588.03 C22.03 584.83 21.13 584.75 20.39 584.68 C20.39 584.68 20.31 584.68 20.31 584.68 C17.31 584.13
							 20.01 580.62 20.01 580.62 C21.13 578.83 21.58 576.41 20.98 574 C19.94 569.63 16.11 566.98 12.37 567.92
							 C8.62 568.85 6.45 573.14 7.49 577.51 C7.64 578.29 7.94 578.99 8.24 579.61 C8.24 579.61 10.49 582.57
							 6.22 583.9 C6.15 583.9 5.7 584.05 5.7 584.05 C3.22 584.99 0.07 589.35 0 595.28 L25.48 595.28 C25.41
							 595.28 25.18 590.6 23.83 588.03 Z" class="st5"/>
			</g>
			<g id="group4-12" transform="translate(0,-0.0389688)" v:mID="4" v:groupContext="group" v:layerMember="0">
				<title>Sheet.4</title>
				<g id="group5-13" transform="translate(6.45146,-10.7715)" v:mID="5" v:groupContext="group" v:layerMember="0">
					<title>Sheet.5</title>
					<g id="shape6-14" v:mID="6" v:groupContext="shape" v:layerMember="0">
						<title>Sheet.6</title>
						<path d="M5.92 578.67 C2.17 579.61 0 583.9 1.05 588.26 C2.1 592.63 5.92 595.28 9.67 594.34 C13.42 593.41
									 15.59 589.12 14.54 584.75 C13.49 580.39 9.67 577.74 5.92 578.67 Z" class="st6"/>
					</g>
				</g>
				<g id="group7-16" v:mID="7" v:groupContext="group" v:layerMember="0">
					<title>Sheet.7</title>
					<g id="shape8-17" v:mID="8" v:groupContext="shape" v:layerMember="0">
						<title>Sheet.8</title>
						<path d="M20.39 584.68 C19.71 584.6 18.89 586 17.84 586.55 C16.79 587.01 15.66 588.03 12.67 586.55 C9.67
									 585.07 9.22 583.82 6.67 583.82 C4.12 583.82 0.07 588.5 0 595.28 L25.48 595.28 C25.41 595.28
									 25.18 590.6 23.76 588.11 C22.03 584.75 21.13 584.75 20.39 584.68 Z" class="st6"/>
					</g>
				</g>
			</g>
			<g id="shape2-19" v:mID="2" v:groupContext="groupContent" v:layerMember="0">
				<v:textBlock v:margins="rect(4,4,4,4)" v:tabSpace="42.5197"/>
				<v:textRect cx="12.7559" cy="604.677" width="41.17" height="18.8036"/>
				<text x="-2.83" y="607.38" class="st7" v:langID="1033"><v:paragraph v:horizAlign="1"/><v:tabList/>Request</text>			</g>
		</g>
		<g id="shape9-21" v:mID="9" v:groupContext="shape" transform="translate(822.047,198.425) rotate(90)">
			<title>Sheet.9</title>
			<path d="M0 595.28 L269.29 595.28" class="st8"/>
		</g>
		<g id="shape19-24" v:mID="19" v:groupContext="shape" transform="translate(240.945,-311.811)">
			<title>Sheet.19</title>
			<desc>Pre start</desc>
			<v:textBlock v:margins="rect(4,4,4,4)" v:tabSpace="42.5197"/>
			<v:textRect cx="63.7795" cy="595.276" width="127.56" height="0"/>
			<path d="M0 595.28 L117.75 595.28" class="st1"/>
			<rect v:rectContext="textBkgnd" x="41.5931" y="588.061" width="44.3727" height="14.4303" class="st3"/>
			<text x="41.59" y="598.88" class="st4" v:langID="1033"><v:paragraph v:horizAlign="1"/><v:tabList/>Pre start</text>		</g>
		<g id="shape30-31" v:mID="30" v:groupContext="shape" transform="translate(396.85,-311.811)">
			<title>Sheet.30</title>
			<desc>Cold start</desc>
			<v:textBlock v:margins="rect(4,4,4,4)" v:tabSpace="42.5197"/>
			<v:textRect cx="77.9528" cy="595.276" width="155.91" height="0"/>
			<path d="M0 595.28 L146.1 595.28" class="st1"/>
			<rect v:rectContext="textBkgnd" x="53.0653" y="588.061" width="49.7752" height="14.4303" class="st9"/>
			<text x="53.07" y="598.88" class="st4" v:langID="1033"><v:paragraph v:horizAlign="1"/><v:tabList/>Cold start</text>		</g>
		<g id="shape31-38" v:mID="31" v:groupContext="shape" transform="translate(574.016,-311.811)">
			<title>Sheet.31</title>
			<desc>Warm start</desc>
			<v:textBlock v:margins="rect(4,4,4,4)" v:tabSpace="42.5197"/>
			<v:textRect cx="63.7795" cy="595.276" width="127.56" height="0"/>
			<path d="M0 595.28 L117.75 595.28" class="st1"/>
			<rect v:rectContext="textBkgnd" x="34.477" y="588.061" width="58.6049" height="14.4303" class="st3"/>
			<text x="34.48" y="598.88" class="st4" v:langID="1033"><v:paragraph v:horizAlign="1"/><v:tabList/>Warm start</text>		</g>
		<g id="shape32-45" v:mID="32" v:groupContext="shape" transform="translate(708.661,-311.811)">
			<title>Sheet.32</title>
			<desc>Run code</desc>
			<v:textBlock v:margins="rect(4,4,4,4)" v:tabSpace="42.5197"/>
			<v:textRect cx="63.7795" cy="595.276" width="127.56" height="0"/>
			<path d="M0 595.28 L117.75 595.28" class="st1"/>
			<rect v:rectContext="textBkgnd" x="39.9845" y="588.061" width="47.59" height="14.4303" class="st9"/>
			<text x="39.98" y="598.88" class="st4" v:langID="1033"><v:paragraph v:horizAlign="1"/><v:tabList/>Run code</text>		</g>
		<g id="shape33-52" v:mID="33" v:groupContext="shape" transform="translate(460.63,-453.543)">
			<title>Sheet.33</title>
			<desc>Invocation overhead</desc>
			<v:textBlock v:margins="rect(4,4,4,4)" v:tabSpace="42.5197"/>
			<v:textRect cx="148.819" cy="566.929" width="297.64" height="56.6929"/>
			<rect x="0" y="538.583" width="297.638" height="56.6929" class="st10"/>
			<text x="69.71" y="572.33" class="st11" v:langID="1033"><v:paragraph v:horizAlign="1"/><v:tabList/>Invocation overhead</text>		</g>
		<g id="shape35-55" v:mID="35" v:groupContext="shape" transform="translate(89.2913,-233.858)">
			<title>Sheet.35</title>
			<desc>Internet / network latency</desc>
			<v:textBlock v:margins="rect(4,4,4,4)" v:tabSpace="42.5197"/>
			<v:textRect cx="56.6929" cy="563.386" width="113.39" height="63.7795"/>
			<rect x="0" y="531.496" width="113.386" height="63.7795" class="st10"/>
			<text x="4" y="559.84" class="st12" v:langID="1033"><v:paragraph v:indentFirst="-18" v:indentLeft="18" v:bullet="1"/><v:tabList/><tspan
						class="st13" v:isBullet="true">·</tspan> <tspan class="st14">Internet / </tspan><tspan x="22" dy="1.205em"
						class="st14">network latency</tspan></text>		</g>
		<g id="shape37-61" v:mID="37" v:groupContext="shape" transform="translate(240.945,-194.882)">
			<title>Sheet.37</title>
			<desc>Authentication Authorization Scale Wait for Alocation</desc>
			<v:textBlock v:margins="rect(4,4,4,4)" v:tabSpace="42.5197"/>
			<v:textRect cx="66.6142" cy="535.039" width="133.23" height="120.472"/>
			<rect x="0" y="474.803" width="133.228" height="120.472" class="st10"/>
			<text x="4" y="516.77" class="st12" v:langID="1033"><v:paragraph v:indentFirst="-18" v:indentLeft="18" v:bullet="1"/><v:tabList/><tspan
						class="st13" v:isBullet="true">·</tspan> <tspan class="st14">Authentication<v:newlineChar/></tspan><tspan
						x="4" dy="1.218em" class="st13" v:isBullet="true">·</tspan> <tspan class="st14">Authorization<v:newlineChar/></tspan><tspan
						x="4" dy="1.218em" class="st13" v:isBullet="true">·</tspan> <tspan class="st14">Scale<v:newlineChar/></tspan><tspan
						x="4" dy="1.218em" class="st13" v:isBullet="true">·</tspan> <tspan class="st14">Wait for Alocation</tspan></text>		</g>
		<g id="shape38-72" v:mID="38" v:groupContext="shape" transform="translate(384.362,-206.772)">
			<title>Sheet.38</title>
			<desc>Configure the environment (filesystem / network /ect) Run the...</desc>
			<v:textBlock v:margins="rect(4,4,4,4)" v:tabSpace="42.5197"/>
			<v:textRect cx="89.7323" cy="585.276" width="179.47" height="20"/>
			<rect x="0" y="575.276" width="179.465" height="20" class="st10"/>
			<text x="4" y="530.78" class="st12" v:langID="1033"><v:paragraph v:indentFirst="-18" v:indentLeft="18" v:bullet="1"/><v:tabList/><tspan
						class="st13" v:isBullet="true">·</tspan> <tspan class="st14">Configure the environment </tspan><tspan
						x="22" dy="1.205em" class="st14">(filesystem / network /ect)<v:newlineChar/></tspan><tspan x="4"
						dy="1.214em" class="st13" v:isBullet="true">·</tspan> <tspan class="st14">Run the environment / </tspan><tspan
						x="22" dy="1.205em" class="st14">sandbox / container<v:newlineChar/></tspan><tspan x="4" dy="1.214em"
						class="st13" v:isBullet="true">·</tspan> <tspan class="st14">Run the runtime (nodejs /  </tspan><tspan
						x="22" dy="1.205em" class="st14">pyton / go / ect)<v:newlineChar/></tspan><tspan x="4" dy="1.214em"
						class="st13" v:isBullet="true">·</tspan> <tspan class="st14">Init user code<v:newlineChar/></tspan><tspan
						x="4" dy="1.218em" class="st13" v:isBullet="true">·</tspan> <tspan class="st14">readiness to call user function<v:newlineChar/></tspan><tspan
						x="4" dy="1.218em" class="st13" v:isBullet="true">·</tspan> <tspan class="st14">Wait for request</tspan></text>		</g>
		<g id="shape41-90" v:mID="41" v:groupContext="shape" transform="translate(574.016,-198.425)">
			<title>Sheet.41</title>
			<desc>Process request Prepare function parameters Call user function</desc>
			<v:textBlock v:margins="rect(4,4,4,4)" v:tabSpace="42.5197"/>
			<v:textRect cx="63.7795" cy="538.583" width="127.56" height="113.386"/>
			<rect x="0" y="481.89" width="127.559" height="113.386" class="st10"/>
			<text x="4" y="520.42" class="st12" v:langID="1033"><v:paragraph v:indentFirst="-18" v:indentLeft="18" v:bullet="1"/><v:tabList/><tspan
						class="st13" v:isBullet="true">·</tspan> <tspan class="st14">Process request<v:newlineChar/></tspan><tspan
						x="4" dy="1.218em" class="st13" v:isBullet="true">·</tspan> <tspan class="st14">Prepare function </tspan><tspan
						x="22" dy="1.205em" class="st14">parameters<v:newlineChar/></tspan><tspan x="4" dy="1.214em" class="st13"
						v:isBullet="true">·</tspan> <tspan class="st14">Call user function</tspan></text>		</g>
		<g id="shape44-100" v:mID="44" v:groupContext="shape" transform="translate(850.394,-311.811)">
			<title>Sheet.44</title>
			<desc>Post start</desc>
			<v:textBlock v:margins="rect(4,4,4,4)" v:tabSpace="42.5197"/>
			<v:textRect cx="63.7795" cy="595.276" width="127.56" height="0"/>
			<path d="M0 595.28 L117.75 595.28" class="st1"/>
			<rect v:rectContext="textBkgnd" x="39.2083" y="588.061" width="49.1424" height="14.4303" class="st3"/>
			<text x="39.21" y="598.88" class="st4" v:langID="1033"><v:paragraph v:horizAlign="1"/><v:tabList/>Post start</text>		</g>
		<g id="shape47-107" v:mID="47" v:groupContext="shape" transform="translate(850.394,-184.252)">
			<title>Sheet.47</title>
			<desc>Parse function output Create and return response Finalize req...</desc>
			<v:textBlock v:margins="rect(4,4,4,4)" v:tabSpace="42.5197"/>
			<v:textRect cx="70.8661" cy="548.504" width="141.74" height="93.5433"/>
			<rect x="0" y="501.732" width="141.732" height="93.5433" class="st10"/>
			<text x="4" y="508.74" class="st12" v:langID="1033"><v:paragraph v:indentFirst="-18" v:indentLeft="18" v:bullet="1"/><v:tabList/><tspan
						class="st13" v:isBullet="true">·</tspan> <tspan class="st14">Parse function output<v:newlineChar/></tspan><tspan
						x="4" dy="1.218em" class="st13" v:isBullet="true">·</tspan> <tspan class="st14">Create and return </tspan><tspan
						x="22" dy="1.205em" class="st14">response<v:newlineChar/></tspan><tspan x="4" dy="1.214em" class="st13"
						v:isBullet="true">·</tspan> <tspan class="st14">Finalize request </tspan><tspan x="22" dy="1.205em"
						class="st14">(usually happens </tspan><tspan x="22" dy="1.2em" class="st14">asynchronically after </tspan><tspan
						x="22" dy="1.2em" class="st14">sending the response)</tspan></text>		</g>
		<g id="shape48-120" v:mID="48" v:groupContext="shape" transform="translate(963.78,198.425) rotate(90)">
			<title>Sheet.48</title>
			<path d="M0 595.28 L269.29 595.28" class="st8"/>
		</g>
		<g id="shape49-123" v:mID="49" v:groupContext="shape" transform="translate(1431.5,198.425) rotate(90)">
			<title>Sheet.49</title>
			<path d="M0 595.28 L255.12 595.28" class="st8"/>
		</g>
		<g id="shape50-126" v:mID="50" v:groupContext="shape" transform="translate(233.858,-113.386)">
			<title>Sheet.50</title>
			<path d="M0 595.28 L751.18 595.28 L751.18 283.46 L0 283.46 L0 595.28 Z" class="st15"/>
		</g>
		<g id="group51-128" transform="translate(1149.45,-297.638)" v:mID="51" v:groupContext="group" v:layerMember="0">
			<title>User (Opaque).51</title>
			<desc>Response</desc>
			<g id="shape52-129" v:mID="52" v:groupContext="shape" v:layerMember="0" transform="translate(0.0305026,0)">
				<title>Sheet.52</title>
				<path d="M23.83 588.03 C22.03 584.83 21.13 584.75 20.39 584.68 C20.39 584.68 20.31 584.68 20.31 584.68 C17.31 584.13
							 20.01 580.62 20.01 580.62 C21.13 578.83 21.58 576.41 20.98 574 C19.94 569.63 16.11 566.98 12.37 567.92
							 C8.62 568.85 6.45 573.14 7.49 577.51 C7.64 578.29 7.94 578.99 8.24 579.61 C8.24 579.61 10.49 582.57
							 6.22 583.9 C6.15 583.9 5.7 584.05 5.7 584.05 C3.22 584.99 0.07 589.35 0 595.28 L25.48 595.28 C25.41
							 595.28 25.18 590.6 23.83 588.03 Z" class="st5"/>
			</g>
			<g id="group53-131" transform="translate(0,-0.0389688)" v:mID="53" v:groupContext="group" v:layerMember="0">
				<title>Sheet.53</title>
				<g id="group54-132" transform="translate(6.45146,-10.7715)" v:mID="54" v:groupContext="group" v:layerMember="0">
					<title>Sheet.54</title>
					<g id="shape55-133" v:mID="55" v:groupContext="shape" v:layerMember="0">
						<title>Sheet.55</title>
						<path d="M5.92 578.67 C2.17 579.61 0 583.9 1.05 588.26 C2.1 592.63 5.92 595.28 9.67 594.34 C13.42 593.41
									 15.59 589.12 14.54 584.75 C13.49 580.39 9.67 577.74 5.92 578.67 Z" class="st6"/>
					</g>
				</g>
				<g id="group56-135" v:mID="56" v:groupContext="group" v:layerMember="0">
					<title>Sheet.56</title>
					<g id="shape57-136" v:mID="57" v:groupContext="shape" v:layerMember="0">
						<title>Sheet.57</title>
						<path d="M20.39 584.68 C19.71 584.6 18.89 586 17.84 586.55 C16.79 587.01 15.66 588.03 12.67 586.55 C9.67
									 585.07 9.22 583.82 6.67 583.82 C4.12 583.82 0.07 588.5 0 595.28 L25.48 595.28 C25.41 595.28
									 25.18 590.6 23.76 588.11 C22.03 584.75 21.13 584.75 20.39 584.68 Z" class="st6"/>
					</g>
				</g>
			</g>
			<g id="shape51-138" v:mID="51" v:groupContext="groupContent" v:layerMember="0">
				<v:textBlock v:margins="rect(4,4,4,4)" v:tabSpace="42.5197"/>
				<v:textRect cx="12.7559" cy="604.677" width="46.9" height="18.8036"/>
				<text x="-5.7" y="607.38" class="st7" v:langID="1033"><v:paragraph v:horizAlign="1"/><v:tabList/>Response</text>			</g>
		</g>
		<g id="shape58-140" v:mID="58" v:groupContext="shape" transform="translate(1002.13,-311.811)">
			<title>Sheet.58</title>
			<desc>From the server</desc>
			<v:textBlock v:margins="rect(4,4,4,4)" v:tabSpace="42.5197"/>
			<v:textRect cx="63.7795" cy="595.276" width="127.56" height="0"/>
			<path d="M0 595.28 L117.75 595.28" class="st1"/>
			<rect v:rectContext="textBkgnd" x="22.5736" y="588.061" width="82.412" height="14.4303" class="st9"/>
			<text x="22.57" y="598.88" class="st4" v:langID="1033"><v:paragraph v:horizAlign="1"/><v:tabList/>From the server</text>		</g>
		<g id="shape59-147" v:mID="59" v:groupContext="shape" transform="translate(1014.8,-238.444)">
			<title>Sheet.59</title>
			<desc>Internet / network latency</desc>
			<v:textBlock v:margins="rect(4,4,4,4)" v:tabSpace="42.5197"/>
			<v:textRect cx="56.6929" cy="563.386" width="113.39" height="63.7795"/>
			<rect x="0" y="531.496" width="113.386" height="63.7795" class="st10"/>
			<text x="4" y="559.84" class="st12" v:langID="1033"><v:paragraph v:indentFirst="-18" v:indentLeft="18" v:bullet="1"/><v:tabList/><tspan
						class="st13" v:isBullet="true">·</tspan> <tspan class="st14">Internet / </tspan><tspan x="22" dy="1.205em"
						class="st14">network latency</tspan></text>		</g>
		<g id="shape60-153" v:mID="60" v:groupContext="shape" transform="translate(1587.4,198.425) rotate(90)">
			<title>Sheet.60</title>
			<path d="M0 595.28 L255.12 595.28" class="st8"/>
		</g>
	</g>
</svg>
