<?xml version="1.0" encoding="UTF-8"?>
<svg width="133px" height="45px" viewBox="0 0 133 45" version="1.1" xmlns="http://www.w3.org/2000/svg" xmlns:xlink="http://www.w3.org/1999/xlink">
    <!-- Generator: sketchtool 53.2 (72643) - https://sketchapp.com -->
    <title>5BC635E4-D836-4758-9807-9389A5BE2167</title>
    <desc>Created with sketchtool.</desc>
    <g id="UI" stroke="none" stroke-width="1" fill="none" fill-rule="evenodd">
        <g id="00-Coldstart" transform="translate(-24.000000, -25.000000)">
            <g id="Logo" transform="translate(20.000000, 24.000000)">
                <g id="Logo-text">
                    <text id="FaaSTest" font-family="Rajdhani-Medium, Rajdhani" font-size="26" font-weight="400" letter-spacing="1.79999995" fill="#FFFFFF">
                        <tspan x="28" y="24">FaaSTes</tspan>
                        <tspan x="128.428" y="24">t</tspan>
                    </text>
                    <g id="Logo" transform="translate(0.000000, 1.000000)">
                        <rect id="BG" x="0" y="0" width="24" height="24"></rect>
                        <g id="Group" transform="translate(4.800000, 0.000000)" fill-rule="nonzero">
                            <path d="M6.91732655,23.9587161 C5.13045787,23.8159764 3.48670352,23.433974 2.22565428,22.6483141 C0.714704387,21.7069609 -5.32907052e-15,19.3171188 -5.32907052e-15,17.8029965 C-5.25221597e-15,15.7111132 1.68965873,15.2963335 1.77846711,13.4991257 C1.86727549,11.7019178 0.574789883,11.0221311 0.94302479,9.6886261 C1.3112597,8.35512111 4.82448181,7.43211949 5.54149265,6.72717585 C6.2585035,6.02223222 3.82306309,5.31522939 4.31404296,4.45237322 C4.80502284,3.58951704 7.13262211,1.66533454e-16 7.7620355,0 C8.3914489,0 6.69262191,1.62787786 7.45561408,2.64735167 C8.33209198,3.81845972 9.25748217,3.81845972 9.84097974,4.45237322 C10.4244773,5.08628671 8.33951976,6.7879689 9.0499806,7.41120608 C10.9245781,9.05565824 12.7162703,9.13197874 13.1964163,10.5154504 C13.5047677,11.4039207 11.9458952,13.4390345 12.3768075,14.0134607 C13.2602034,15.1910687 14.4583566,16.9203608 14.397792,17.8029965 C14.3320827,18.7606071 14.0607484,20.0237847 13.5837891,21.5925293 C13.3688162,19.7330566 12.966489,18.8033203 12.3768075,18.8033203 C11.4922852,18.8033203 13.4245812,22.2203643 10.5100861,23.4115504 C8.66449147,24.1658652 7.34791641,23.9931127 6.91732655,23.9587161 Z" id="Shape" fill="#FFFFFF"></path>
                            <path d="M7.05866327,21.5772938 C6.16522894,21.498787 5.34335176,21.2886857 4.71282714,20.8565728 C3.95735219,20.3388285 3.6,19.0244153 3.6,18.1916481 C3.6,17.0411123 4.44482937,16.8129834 4.48923356,15.8245191 C4.53363774,14.8360548 3.88739494,14.4621721 4.0715124,13.7287444 C4.25562985,12.9953166 6.0122409,12.4876657 6.37074633,12.0999467 C6.72925175,11.7122277 5.51153154,11.3233762 5.75702148,10.8488053 C6.00251142,10.3742344 7.16631105,8.4 7.48101775,8.4 C7.79572445,8.4 6.94631096,9.29533282 7.32780704,9.85604342 C7.76604599,10.5001528 8.22874108,10.5001528 8.52048987,10.8488053 C8.81223866,11.1974577 7.76975988,12.1333829 8.1249903,12.4761633 C9.06228907,13.380612 9.95813516,13.4225883 10.1982081,14.1834977 C10.3523838,14.6721564 9.57294761,15.791469 9.78840374,16.1074034 C10.2301017,16.7550878 10.8291783,17.7061985 10.798896,18.1916481 C10.7660414,18.7183339 10.6303742,19.4130816 10.3918945,20.2758911 C10.2844081,19.2531812 10.0832445,18.7418262 9.78840374,18.7418262 C9.34614258,18.7418262 10.3122906,20.6212004 8.85504307,21.2763527 C7.93224573,21.6912259 7.2739582,21.596212 7.05866327,21.5772938 Z" id="Shape" fill="#0B354B"></path>
                        </g>
                    </g>
                </g>
                <text id="Powered-by" font-family="Rajdhani-Regular, Rajdhani" font-size="13" font-weight="normal" fill="#FFFFFF">
                    <tspan x="29" y="44">Powered by</tspan>
                </text>
                <text id="Nuweba" font-family="Rajdhani-Bold, Rajdhani" font-size="13" font-weight="bold" fill="#FFFFFF">
                    <tspan x="94.277" y="44">Nuweba</tspan>
                </text>
            </g>
        </g>
    </g>
</svg>