<?xml version="1.0" encoding="UTF-8"?>
<svg width="145px" height="52px" viewBox="0 0 145 52" version="1.1" xmlns="http://www.w3.org/2000/svg" xmlns:xlink="http://www.w3.org/1999/xlink">
    <!-- Generator: Sketch 53.2 (72643) - https://sketchapp.com -->
    <title>Logo</title>
    <desc>Created with Sketch.</desc>
    <g id="Logo" stroke="none" stroke-width="1" fill="none" fill-rule="evenodd">
        <g transform="translate(0.000000, 4.000000)">
            <g id="Logo-text">
                <path d="M31.588,24 L30.418,24 C30.1753321,24 30.054,23.8786679 30.054,23.636 L30.054,7.646 C30.054,7.40333212 30.1753321,7.282 30.418,7.282 L38.504,7.282 C38.7466679,7.282 38.868,7.40333212 38.868,7.646 L38.868,8.582 C38.868,8.82466788 38.7466679,8.946 38.504,8.946 L32.212,8.946 C32.0386658,8.946 31.952,9.02399922 31.952,9.18 L31.952,14.848 C31.952,15.0040008 32.0386658,15.082 32.212,15.082 L37.776,15.082 C38.0186679,15.082 38.14,15.2033321 38.14,15.446 L38.14,16.382 C38.14,16.6246679 38.0186679,16.746 37.776,16.746 L32.212,16.746 C32.0386658,16.746 31.952,16.8326658 31.952,17.006 L31.952,23.636 C31.952,23.8786679 31.8306679,24 31.588,24 Z M48.416,24 L47.064,24 C45.867994,24 44.92767,23.6620034 44.243,22.986 C43.5583299,22.3099966 43.216,21.3653394 43.216,20.152 L43.216,14.588 C43.216,13.3746606 43.5583299,12.4300034 44.243,11.754 C44.92767,11.0779966 45.867994,10.74 47.064,10.74 L52.706,10.74 C52.9486678,10.74 53.07,10.8613321 53.07,11.104 L53.07,23.636 C53.07,23.8786679 52.9486678,24 52.706,24 L51.536,24 C51.2933321,24 51.172,23.8786679 51.172,23.636 L51.172,22.622 L51.068,22.622 C50.6346645,23.5406713 49.7506733,24 48.416,24 Z M51.172,19.944 L51.172,12.638 C51.172,12.4819992 51.0853342,12.404 50.912,12.404 L47.272,12.404 C45.8333261,12.404 45.114,13.1579925 45.114,14.666 L45.114,20.074 C45.114,21.5820075 45.8333261,22.336 47.272,22.336 L48.754,22.336 C49.5340039,22.336 50.1319979,22.1280021 50.548,21.712 C50.964002,21.2959979 51.172,20.7066705 51.172,19.944 Z M63.3979999,24 L62.0459999,24 C60.8499939,24 59.90967,23.6620034 59.2249999,22.986 C58.5403298,22.3099966 58.1979999,21.3653394 58.1979999,20.152 L58.1979999,14.588 C58.1979999,13.3746606 58.5403298,12.4300034 59.2249999,11.754 C59.90967,11.0779966 60.8499939,10.74 62.0459999,10.74 L67.6879999,10.74 C67.9306678,10.74 68.0519999,10.8613321 68.0519999,11.104 L68.0519999,23.636 C68.0519999,23.8786679 67.9306678,24 67.6879999,24 L66.5179999,24 C66.275332,24 66.1539999,23.8786679 66.1539999,23.636 L66.1539999,22.622 L66.0499999,22.622 C65.6166644,23.5406713 64.7326732,24 63.3979999,24 Z M66.1539999,19.944 L66.1539999,12.638 C66.1539999,12.4819992 66.0673341,12.404 65.8939999,12.404 L62.2539999,12.404 C60.815326,12.404 60.0959999,13.1579925 60.0959999,14.666 L60.0959999,20.074 C60.0959999,21.5820075 60.815326,22.336 62.2539999,22.336 L63.7359999,22.336 C64.5160038,22.336 65.1139978,22.1280021 65.5299999,21.712 C65.946002,21.2959979 66.1539999,20.7066705 66.1539999,19.944 Z M73.5179999,20.152 L73.5179999,19.32 C73.5179999,19.0773321 73.639332,18.956 73.8819999,18.956 L75.0519999,18.956 C75.2946677,18.956 75.4159999,19.0773321 75.4159999,19.32 L75.4159999,19.996 C75.4159999,21.5560078 76.1873255,22.336 77.7299999,22.336 L80.0179999,22.336 C81.5606742,22.336 82.3319999,21.5386746 82.3319999,19.944 L82.3319999,19.06 C82.3319999,17.8119938 81.3006768,16.9973352 79.2379999,16.616 C78.3713289,16.4599992 77.5046709,16.278001 76.6379999,16.07 C75.7713289,15.861999 75.0346696,15.459003 74.4279999,14.861 C73.8213302,14.262997 73.5179999,13.4440052 73.5179999,12.404 L73.5179999,11.13 C73.5179999,9.93399402 73.8603298,8.99367009 74.5449999,8.309 C75.2296699,7.62432991 76.1699939,7.282 77.3659999,7.282 L80.2519999,7.282 C81.4306724,7.282 82.3666631,7.62432991 83.0599999,8.309 C83.7533367,8.99367009 84.0999999,9.93399402 84.0999999,11.13 L84.0999999,11.78 C84.0999999,12.0400013 83.9873343,12.17 83.7619999,12.17 L82.5659999,12.17 C82.3406654,12.17 82.2279999,12.0400013 82.2279999,11.78 L82.2279999,11.312 C82.2279999,9.73465878 81.4566742,8.946 79.9139999,8.946 L77.7039999,8.946 C76.1613255,8.946 75.3899999,9.7693251 75.3899999,11.416 L75.3899999,12.456 C75.3899999,13.3400044 75.9706607,13.946665 77.1319999,14.276 C77.6520025,14.4146674 78.2239967,14.5403328 78.8479999,14.653 C79.472003,14.7656672 80.10033,14.9129991 80.7329999,15.095 C81.3656697,15.2770009 81.9419973,15.502332 82.4619999,15.771 C82.9820025,16.039668 83.4023316,16.4469973 83.7229999,16.993 C84.0436681,17.5390027 84.2039999,18.2019961 84.2039999,18.982 L84.2039999,20.152 C84.2039999,21.348006 83.8573367,22.2883299 83.1639999,22.973 C82.4706631,23.6576701 81.5346724,24 80.3559999,24 L77.3659999,24 C76.1873273,24 75.2513367,23.6576701 74.5579999,22.973 C73.8646631,22.2883299 73.5179999,21.348006 73.5179999,20.152 Z M94.0119998,24 L92.8419998,24 C92.5993319,24 92.4779998,23.8786679 92.4779998,23.636 L92.4779998,9.18 C92.4779998,9.02399922 92.391334,8.946 92.2179998,8.946 L88.6819998,8.946 C88.4219985,8.946 88.2919998,8.82466788 88.2919998,8.582 L88.2919998,7.646 C88.2919998,7.40333212 88.4219985,7.282 88.6819998,7.282 L98.1719998,7.282 C98.4320011,7.282 98.5619998,7.40333212 98.5619998,7.646 L98.5619998,8.582 C98.5619998,8.82466788 98.4320011,8.946 98.1719998,8.946 L94.6359998,8.946 C94.4626656,8.946 94.3759998,9.02399922 94.3759998,9.18 L94.3759998,23.636 C94.3759998,23.8786679 94.2546677,24 94.0119998,24 Z M111.672,24 L106.16,24 C104.963994,24 104.02367,23.6620034 103.339,22.986 C102.65433,22.3099966 102.312,21.3653394 102.312,20.152 L102.312,14.588 C102.312,13.3746606 102.65433,12.4300034 103.339,11.754 C104.02367,11.0779966 104.963994,10.74 106.16,10.74 L108.344,10.74 C109.540006,10.74 110.475996,11.0779966 111.152,11.754 C111.828003,12.4300034 112.166,13.3746606 112.166,14.588 L112.166,17.89 C112.166,18.1500013 112.044668,18.28 111.802,18.28 L104.444,18.28 C104.270666,18.28 104.184,18.3579992 104.184,18.514 L104.184,20.1 C104.184,21.6080075 104.911992,22.362 106.368,22.362 L111.672,22.362 C111.914668,22.362 112.036,22.4833321 112.036,22.726 L112.036,23.662 C112.036,23.8873345 111.914668,24 111.672,24 Z M104.444,16.902 L110.06,16.902 C110.233334,16.902 110.32,16.8153342 110.32,16.642 L110.32,14.64 C110.32,13.1493259 109.592007,12.404 108.136,12.404 L106.368,12.404 C104.911992,12.404 104.184,13.1493259 104.184,14.64 L104.184,16.642 C104.184,16.8153342 104.270666,16.902 104.444,16.902 Z M121.662,24 L117.034,24 C116.791332,24 116.67,23.8786679 116.67,23.636 L116.67,22.726 C116.67,22.5006655 116.791332,22.388 117.034,22.388 L121.402,22.388 C122.754006,22.388 123.43,21.8853384 123.43,20.88 L123.43,20.386 C123.43,19.4673287 122.988004,18.8346684 122.104,18.488 L119.036,17.188 C118.151995,16.8239982 117.519335,16.3950025 117.138,15.901 C116.756664,15.4069975 116.566,14.7526707 116.566,13.938 C116.566,11.8059893 117.735988,10.74 120.076,10.74 L124.34,10.74 C124.582668,10.74 124.704,10.8613321 124.704,11.104 L124.704,12.014 C124.704,12.2393345 124.582668,12.352 124.34,12.352 L120.414,12.352 C119.789997,12.352 119.317668,12.4819987 118.997,12.742 C118.676331,13.0020013 118.516,13.3053316 118.516,13.652 L118.516,14.094 C118.516,14.8220036 119.009995,15.3766648 119.998,15.758 L123.066,17.136 C123.967338,17.4826684 124.578331,17.9419971 124.899,18.514 C125.219668,19.0860029 125.38,19.8746616 125.38,20.88 C125.38,22.9600104 124.140679,24 121.662,24 Z M130.716,12.404 L129.286,12.404 C129.043332,12.404 128.922,12.2913345 128.922,12.066 L128.922,11.104 C128.922,10.8613321 129.043332,10.74 129.286,10.74 L130.716,10.74 C130.889334,10.74 130.976,10.6620008 130.976,10.506 L130.976,8.27 C130.976,8.02733212 131.097332,7.906 131.34,7.906 L132.51,7.906 C132.735334,7.906 132.848,8.02733212 132.848,8.27 L132.848,10.506 C132.848,10.6620008 132.943332,10.74 133.134,10.74 L135.89,10.74 C136.150001,10.74 136.28,10.8613321 136.28,11.104 L136.28,12.066 C136.28,12.2913345 136.150001,12.404 135.89,12.404 L133.134,12.404 C132.943332,12.404 132.848,12.4819992 132.848,12.638 L132.848,20.126 C132.848,21.5993407 133.610659,22.336 135.136,22.336 L136.15,22.336 C136.410001,22.336 136.54,22.4573321 136.54,22.7 L136.54,23.662 C136.54,23.8873345 136.410001,24 136.15,24 L134.902,24 C133.705994,24 132.75267,23.6663367 132.042,22.999 C131.331329,22.3316633 130.976,21.400006 130.976,20.204 L130.976,12.638 C130.976,12.4819992 130.889334,12.404 130.716,12.404 Z" id="FaaSTest" fill="#0B354B" fill-rule="nonzero"></path>
                <g id="Logo" transform="translate(0.000000, 1.000000)">
                    <rect id="BG" x="0" y="0" width="24" height="24"></rect>
                    <g id="Group" transform="translate(4.800000, 0.000000)" fill-rule="nonzero">
                        <path d="M6.91732655,23.9587161 C5.13045787,23.8159764 3.48670352,23.433974 2.22565428,22.6483141 C0.714704387,21.7069609 -5.32907052e-15,19.3171188 -5.32907052e-15,17.8029965 C-5.25221597e-15,15.7111132 1.68965873,15.2963335 1.77846711,13.4991257 C1.86727549,11.7019178 0.574789883,11.0221311 0.94302479,9.6886261 C1.3112597,8.35512111 4.82448181,7.43211949 5.54149265,6.72717585 C6.2585035,6.02223222 3.82306309,5.31522939 4.31404296,4.45237322 C4.80502284,3.58951704 7.13262211,1.66533454e-16 7.7620355,0 C8.3914489,0 6.69262191,1.62787786 7.45561408,2.64735167 C8.33209198,3.81845972 9.25748217,3.81845972 9.84097974,4.45237322 C10.4244773,5.08628671 8.33951976,6.7879689 9.0499806,7.41120608 C10.9245781,9.05565824 12.7162703,9.13197874 13.1964163,10.5154504 C13.5047677,11.4039207 11.9458952,13.4390345 12.3768075,14.0134607 C13.2602034,15.1910687 14.4583566,16.9203608 14.397792,17.8029965 C14.3320827,18.7606071 14.0607484,20.0237847 13.5837891,21.5925293 C13.3688162,19.7330566 12.966489,18.8033203 12.3768075,18.8033203 C11.4922852,18.8033203 13.4245812,22.2203643 10.5100861,23.4115504 C8.66449147,24.1658652 7.34791641,23.9931127 6.91732655,23.9587161 Z" id="Shape" fill="#0B354B"></path>
                        <path d="M7.05866327,21.5772938 C6.16522894,21.498787 5.34335176,21.2886857 4.71282714,20.8565728 C3.95735219,20.3388285 3.6,19.0244153 3.6,18.1916481 C3.6,17.0411123 4.44482937,16.8129834 4.48923356,15.8245191 C4.53363774,14.8360548 3.88739494,14.4621721 4.0715124,13.7287444 C4.25562985,12.9953166 6.0122409,12.4876657 6.37074633,12.0999467 C6.72925175,11.7122277 5.51153154,11.3233762 5.75702148,10.8488053 C6.00251142,10.3742344 7.16631105,8.4 7.48101775,8.4 C7.79572445,8.4 6.94631096,9.29533282 7.32780704,9.85604342 C7.76604599,10.5001528 8.22874108,10.5001528 8.52048987,10.8488053 C8.81223866,11.1974577 7.76975988,12.1333829 8.1249903,12.4761633 C9.06228907,13.380612 9.95813516,13.4225883 10.1982081,14.1834977 C10.3523838,14.6721564 9.57294761,15.791469 9.78840374,16.1074034 C10.2301017,16.7550878 10.8291783,17.7061985 10.798896,18.1916481 C10.7660414,18.7183339 10.6303742,19.4130816 10.3918945,20.2758911 C10.2844081,19.2531812 10.0832445,18.7418262 9.78840374,18.7418262 C9.34614258,18.7418262 10.3122906,20.6212004 8.85504307,21.2763527 C7.93224573,21.6912259 7.2739582,21.596212 7.05866327,21.5772938 Z" id="Shape" fill="#FFFFFF"></path>
                    </g>
                </g>
            </g>
            <path d="M48.24,40 L47.95,40 C47.883333,40 47.85,39.9600004 47.85,39.88 L47.85,33.69 C47.85,33.6099996 47.883333,33.57 47.95,33.57 L50.25,33.57 C50.6833355,33.57 51.0266654,33.6966654 51.28,33.95 C51.5333346,34.2033346 51.66,34.5499978 51.66,34.99 L51.66,36.16 C51.66,36.6000022 51.5333346,36.9466654 51.28,37.2 C51.0266654,37.4533346 50.6833355,37.58 50.25,37.58 L48.45,37.58 C48.383333,37.58 48.35,37.6066664 48.35,37.66 L48.35,39.88 C48.35,39.9600004 48.3133337,40 48.24,40 Z M48.45,37.12 L50.21,37.12 C50.5166682,37.12 50.7499992,37.0350008 50.91,36.865 C51.0700008,36.6949991 51.15,36.4533349 51.15,36.14 L51.15,35.01 C51.15,34.6899984 51.0700008,34.4450008 50.91,34.275 C50.7499992,34.1049991 50.5166682,34.02 50.21,34.02 L48.45,34.02 C48.383333,34.02 48.35,34.0499997 48.35,34.11 L48.35,37.04 C48.35,37.0933336 48.383333,37.12 48.45,37.12 Z M55.15,40 L54.29,40 C53.8566645,40 53.5150013,39.8733346 53.265,39.62 C53.0149988,39.3666654 52.89,39.0200022 52.89,38.58 L52.89,36.32 C52.89,35.8799978 53.0149988,35.5333346 53.265,35.28 C53.5150013,35.0266654 53.8566645,34.9 54.29,34.9 L55.15,34.9 C55.5833355,34.9 55.9266654,35.0266654 56.18,35.28 C56.4333346,35.5333346 56.56,35.8799978 56.56,36.32 L56.56,38.58 C56.56,39.0200022 56.4333346,39.3666654 56.18,39.62 C55.9266654,39.8733346 55.5833355,40 55.15,40 Z M54.33,39.55 L55.11,39.55 C55.4166682,39.55 55.6516659,39.4650008 55.815,39.295 C55.9783342,39.1249991 56.06,38.8833349 56.06,38.57 L56.06,36.33 C56.06,36.0166651 55.9783342,35.7750008 55.815,35.605 C55.6516659,35.4349991 55.4166682,35.35 55.11,35.35 L54.33,35.35 C54.0233318,35.35 53.7900008,35.4349991 53.63,35.605 C53.4699992,35.7750008 53.39,36.0166651 53.39,36.33 L53.39,38.57 C53.39,38.8833349 53.4699992,39.1249991 53.63,39.295 C53.7900008,39.4650008 54.0233318,39.55 54.33,39.55 Z M59.34,40 L58.94,40 C58.873333,40 58.8300001,39.9600004 58.81,39.88 L57.41,35.02 C57.3899999,34.9399996 57.4166663,34.9 57.49,34.9 L57.81,34.9 C57.8833337,34.9 57.9266666,34.9399996 57.94,35.02 L59.12,39.37 L59.17,39.37 L60.33,35.02 C60.3433334,34.9399996 60.3899996,34.9 60.47,34.9 L60.76,34.9 C60.8400004,34.9 60.8866666,34.9399996 60.9,35.02 L62.04,39.37 L62.09,39.37 L63.28,35.02 C63.3000001,34.9399996 63.343333,34.9 63.41,34.9 L63.73,34.9 C63.8100004,34.9 63.8366668,34.9399996 63.81,35.02 L62.42,39.88 C62.3999999,39.9600004 62.3533337,40 62.28,40 L61.88,40 C61.8066663,40 61.7600001,39.9600004 61.74,39.88 L60.63,35.66 L60.58,35.66 L59.48,39.88 C59.4599999,39.9600004 59.4133337,40 59.34,40 Z M68.17,40 L66.08,40 C65.6466645,40 65.3050013,39.8733346 65.055,39.62 C64.8049988,39.3666654 64.68,39.0200022 64.68,38.58 L64.68,36.32 C64.68,35.8799978 64.8049988,35.5333346 65.055,35.28 C65.3050013,35.0266654 65.6466645,34.9 66.08,34.9 L66.94,34.9 C67.3733355,34.9 67.7166654,35.0266654 67.97,35.28 C68.2233346,35.5333346 68.35,35.8799978 68.35,36.32 L68.35,37.59 C68.35,37.6700004 68.3100004,37.71 68.23,37.71 L65.27,37.71 C65.2099997,37.71 65.18,37.7399997 65.18,37.8 L65.18,38.57 C65.18,38.8833349 65.2599992,39.1249991 65.42,39.295 C65.5800008,39.4650008 65.8133318,39.55 66.12,39.55 L68.17,39.55 C68.2433337,39.55 68.28,39.5866663 68.28,39.66 L68.28,39.89 C68.28,39.9633337 68.2433337,40 68.17,40 Z M65.27,37.31 L67.76,37.31 C67.8200003,37.31 67.85,37.2800003 67.85,37.22 L67.85,36.33 C67.85,36.0166651 67.7700008,35.7750008 67.61,35.605 C67.4499992,35.4349991 67.2166682,35.35 66.91,35.35 L66.12,35.35 C65.8133318,35.35 65.5800008,35.4349991 65.42,35.605 C65.2599992,35.7750008 65.18,36.0166651 65.18,36.33 L65.18,37.22 C65.18,37.2800003 65.2099997,37.31 65.27,37.31 Z M70.09,40 L69.8,40 C69.733333,40 69.7,39.9600004 69.7,39.88 L69.7,35.02 C69.7,34.9399996 69.733333,34.9 69.8,34.9 L70.09,34.9 C70.1633337,34.9 70.2,34.9399996 70.2,35.02 L70.2,35.44 L70.24,35.44 C70.3133337,35.2999993 70.4433324,35.1750005 70.63,35.065 C70.8166676,34.9549994 71.0466653,34.9 71.32,34.9 L71.71,34.9 C71.7833337,34.9 71.82,34.9366663 71.82,35.01 L71.82,35.25 C71.82,35.3233337 71.7833337,35.3566667 71.71,35.35 L71.24,35.35 C70.9133317,35.35 70.6583343,35.449999 70.475,35.65 C70.2916658,35.850001 70.2,36.1199983 70.2,36.46 L70.2,39.88 C70.2,39.9600004 70.1633337,40 70.09,40 Z M76.22,40 L74.13,40 C73.6966645,40 73.3550013,39.8733346 73.105,39.62 C72.8549988,39.3666654 72.73,39.0200022 72.73,38.58 L72.73,36.32 C72.73,35.8799978 72.8549988,35.5333346 73.105,35.28 C73.3550013,35.0266654 73.6966645,34.9 74.13,34.9 L74.99,34.9 C75.4233355,34.9 75.7666654,35.0266654 76.02,35.28 C76.2733346,35.5333346 76.4,35.8799978 76.4,36.32 L76.4,37.59 C76.4,37.6700004 76.3600004,37.71 76.28,37.71 L73.32,37.71 C73.2599997,37.71 73.23,37.7399997 73.23,37.8 L73.23,38.57 C73.23,38.8833349 73.3099992,39.1249991 73.47,39.295 C73.6300008,39.4650008 73.8633318,39.55 74.17,39.55 L76.22,39.55 C76.2933337,39.55 76.33,39.5866663 76.33,39.66 L76.33,39.89 C76.33,39.9633337 76.2933337,40 76.22,40 Z M73.32,37.31 L75.81,37.31 C75.8700003,37.31 75.9,37.2800003 75.9,37.22 L75.9,36.33 C75.9,36.0166651 75.8200008,35.7750008 75.66,35.605 C75.4999992,35.4349991 75.2666682,35.35 74.96,35.35 L74.17,35.35 C73.8633318,35.35 73.6300008,35.4349991 73.47,35.605 C73.3099992,35.7750008 73.23,36.0166651 73.23,36.33 L73.23,37.22 C73.23,37.2800003 73.2599997,37.31 73.32,37.31 Z M79.7,40 L79.03,40 C78.6033312,40 78.2666679,39.8733346 78.02,39.62 C77.7733321,39.3666654 77.65,39.0200022 77.65,38.58 L77.65,36.32 C77.65,35.8799978 77.7733321,35.5333346 78.02,35.28 C78.2666679,35.0266654 78.6033312,34.9 79.03,34.9 L79.7,34.9 C80.2133359,34.9 80.5633324,35.0733316 80.75,35.42 L80.79,35.42 L80.79,33.09 C80.79,33.0099996 80.823333,32.97 80.89,32.97 L81.18,32.97 C81.2533337,32.97 81.29,33.0099996 81.29,33.09 L81.29,39.88 C81.29,39.9600004 81.2533337,40 81.18,40 L80.89,40 C80.823333,40 80.79,39.9600004 80.79,39.88 L80.79,39.48 L80.75,39.48 C80.5633324,39.8266684 80.2133359,40 79.7,40 Z M80.79,38.57 L80.79,36.33 C80.79,36.0166651 80.6983343,35.7750008 80.515,35.605 C80.3316658,35.4349991 80.0800016,35.35 79.76,35.35 L79.09,35.35 C78.7833318,35.35 78.5500008,35.4366658 78.39,35.61 C78.2299992,35.7833342 78.15,36.0266651 78.15,36.34 L78.15,38.56 C78.15,38.8733349 78.2299992,39.1166658 78.39,39.29 C78.5500008,39.4633342 78.7833318,39.55 79.09,39.55 L79.76,39.55 C80.0800016,39.55 80.3316658,39.4650008 80.515,39.295 C80.6983343,39.1249991 80.79,38.8833349 80.79,38.57 Z M86.06,39.55 L87.65,39.55 C87.9566682,39.55 88.1916659,39.4650008 88.355,39.295 C88.5183342,39.1249991 88.6,38.8800016 88.6,38.56 L88.6,36.25 C88.6,35.9366651 88.5183342,35.6950008 88.355,35.525 C88.1916659,35.3549991 87.9566682,35.27 87.65,35.27 L86.99,35.27 C86.6699984,35.27 86.4183343,35.3549991 86.235,35.525 C86.0516658,35.6950008 85.96,35.9366651 85.96,36.25 L85.96,39.46 C85.96,39.5200003 85.993333,39.55 86.06,39.55 Z M85.46,39.88 L85.46,33.09 C85.46,33.0099996 85.493333,32.97 85.56,32.97 L85.85,32.97 C85.9233337,32.97 85.96,33.0099996 85.96,33.09 L85.96,35.34 L86,35.34 C86.1866676,34.9933316 86.5333308,34.82 87.04,34.82 L87.7,34.82 C88.1333355,34.82 88.4749988,34.9466654 88.725,35.2 C88.9750013,35.4533346 89.1,35.7966645 89.1,36.23 L89.1,38.58 C89.1,39.0200022 88.9750013,39.3666654 88.725,39.62 C88.4749988,39.8733346 88.1333355,40 87.7,40 L85.56,40 C85.493333,40 85.46,39.9600004 85.46,39.88 Z M90.74,41.52 L90.37,41.52 C90.2966663,41.52 90.26,41.4833337 90.26,41.41 L90.26,41.17 C90.26,41.0966663 90.2966663,41.06 90.37,41.06 L90.64,41.06 C90.840001,41.06 91.0099993,41.0316669 91.15,40.975 C91.2900007,40.918333 91.4133328,40.8133341 91.52,40.66 C91.6266672,40.5066659 91.6966665,40.3866671 91.73,40.3 C91.8233338,40.0933323 91.8999997,39.9033342 91.96,39.73 L91.77,39.73 C91.6966663,39.73 91.6500001,39.6900004 91.63,39.61 L90.04,35.02 C90.0133332,34.9399996 90.0399996,34.9 90.12,34.9 L90.43,34.9 C90.496667,34.9 90.5399999,34.9399996 90.56,35.02 L92.03,39.31 L92.07,39.31 L93.54,35.02 C93.5600001,34.9399996 93.603333,34.9 93.67,34.9 L93.97,34.9 C94.0500004,34.9 94.0800001,34.9399996 94.06,35.02 C92.8666607,38.5133508 92.2450003,40.3199994 92.195,40.44 C92.1449998,40.5600006 92.053334,40.7233323 91.92,40.93 C91.6666654,41.3233353 91.273336,41.52 90.74,41.52 Z" id="Poweredby" fill="#0B354B" fill-rule="nonzero"></path>
            <path d="M98.976,40 L97.98,40 C97.8119992,40 97.728,39.9160008 97.728,39.748 L97.728,32.536 C97.728,32.3679992 97.8119992,32.284 97.98,32.284 L98.88,32.284 C99.0480008,32.284 99.1599997,32.3399994 99.216,32.452 L101.64,37 L101.688,37 L101.688,32.536 C101.688,32.3679992 101.771999,32.284 101.94,32.284 L102.936,32.284 C103.104001,32.284 103.188,32.3679992 103.188,32.536 L103.188,39.748 C103.188,39.9160008 103.104001,40 102.936,40 L102.06,40 C101.883999,40 101.756,39.9200008 101.676,39.76 L99.276,35.296 L99.228,35.296 L99.228,39.748 C99.228,39.9160008 99.1440008,40 98.976,40 Z M106.836,40 L106.44,40 C105.823997,40 105.358002,39.8320017 105.042,39.496 C104.725998,39.1599983 104.568,38.6760032 104.568,38.044 L104.568,34.132 C104.568,33.9639992 104.651999,33.88 104.82,33.88 L105.84,33.88 C106.008001,33.88 106.092,33.9639992 106.092,34.132 L106.092,37.972 C106.092,38.2280013 106.145999,38.4099995 106.254,38.518 C106.362001,38.6260005 106.539999,38.68 106.788,38.68 L107.232,38.68 C107.784003,38.68 108.06,38.376003 108.06,37.768 L108.06,34.132 C108.06,33.9639992 108.143999,33.88 108.312,33.88 L109.32,33.88 C109.496001,33.88 109.584,33.9639992 109.584,34.132 L109.584,39.748 C109.584,39.9160008 109.496001,40 109.32,40 L108.312,40 C108.143999,40 108.06,39.9160008 108.06,39.748 L108.06,39.352 L108.012,39.352 C107.924,39.5680011 107.768001,39.7299995 107.544,39.838 C107.319999,39.9460005 107.084001,40 106.836,40 Z M113.352,40 L111.984,40 C111.831999,40 111.736,39.9160008 111.696,39.748 L110.496,34.132 C110.464,33.9639992 110.523999,33.88 110.676,33.88 L111.828,33.88 C112.004001,33.88 112.1,33.9639992 112.116,34.132 L112.656,38.236 L112.752,38.236 L113.604,34.132 C113.628,33.9639992 113.719999,33.88 113.88,33.88 L114.936,33.88 C115.104001,33.88 115.204,33.9639992 115.236,34.132 L116.064,38.236 L116.16,38.236 L116.712,34.132 C116.736,33.9639992 116.831999,33.88 117,33.88 L118.152,33.88 C118.312001,33.88 118.372,33.9639992 118.332,34.132 L117.132,39.748 C117.1,39.9160008 117.004001,40 116.844,40 L115.476,40 C115.315999,40 115.22,39.9160008 115.188,39.748 L114.456,35.692 L114.36,35.692 L113.64,39.748 C113.616,39.9160008 113.520001,40 113.352,40 Z M123.768,40 L121.116,40 C120.483997,40 119.996002,39.8320017 119.652,39.496 C119.307998,39.1599983 119.136,38.6760032 119.136,38.044 L119.136,35.836 C119.136,35.2039968 119.307998,34.7200017 119.652,34.384 C119.996002,34.0479983 120.483997,33.88 121.116,33.88 L122.064,33.88 C122.696003,33.88 123.183998,34.0479983 123.528,34.384 C123.872002,34.7200017 124.044,35.2039968 124.044,35.836 L124.044,37.36 C124.044,37.5280008 123.960001,37.612 123.792,37.612 L120.78,37.612 C120.684,37.612 120.636,37.6559996 120.636,37.744 L120.636,38.008 C120.636,38.2560012 120.689999,38.4339995 120.798,38.542 C120.906001,38.6500005 121.087999,38.704 121.344,38.704 L123.768,38.704 C123.936001,38.704 124.02,38.7919991 124.02,38.968 L124.02,39.76 C124.02,39.8480004 124.002,39.9099998 123.966,39.946 C123.93,39.9820002 123.864,40 123.768,40 Z M120.78,36.592 L122.412,36.592 C122.5,36.592 122.544,36.5480004 122.544,36.46 L122.544,35.884 C122.544,35.6279987 122.492001,35.4480005 122.388,35.344 C122.283999,35.2399995 122.104001,35.188 121.848,35.188 L121.344,35.188 C121.087999,35.188 120.908001,35.2399995 120.804,35.344 C120.699999,35.4480005 120.648,35.6279987 120.648,35.884 L120.648,36.46 C120.648,36.5480004 120.692,36.592 120.78,36.592 Z M126.84,38.68 L128.064,38.68 C128.320001,38.68 128.501999,38.6260005 128.61,38.518 C128.718001,38.4099995 128.772,38.2280013 128.772,37.972 L128.772,35.884 C128.772,35.6279987 128.718001,35.4460005 128.61,35.338 C128.501999,35.2299995 128.320001,35.176 128.064,35.176 L127.536,35.176 C126.983997,35.176 126.708,35.479997 126.708,36.088 L126.708,38.548 C126.708,38.6360004 126.752,38.68 126.84,38.68 Z M125.184,39.748 L125.184,31.816 C125.184,31.6479992 125.267999,31.564 125.436,31.564 L126.456,31.564 C126.624001,31.564 126.708,31.6479992 126.708,31.816 L126.708,34.516 L126.756,34.516 C126.844,34.2999989 126.999999,34.1360006 127.224,34.024 C127.448001,33.9119994 127.683999,33.856 127.932,33.856 L128.316,33.856 C128.948003,33.856 129.435998,34.0239983 129.78,34.36 C130.124002,34.6960017 130.296,35.1799968 130.296,35.812 L130.296,38.044 C130.296,38.6760032 130.124002,39.1599983 129.78,39.496 C129.435998,39.8320017 128.948003,40 128.316,40 L125.436,40 C125.267999,40 125.184,39.9160008 125.184,39.748 Z M133.644,40 L133.356,40 C132.723997,40 132.236002,39.8320017 131.892,39.496 C131.547998,39.1599983 131.376,38.6760032 131.376,38.044 L131.376,35.836 C131.376,35.2039968 131.547998,34.7200017 131.892,34.384 C132.236002,34.0479983 132.723997,33.88 133.356,33.88 L136.128,33.88 C136.304001,33.88 136.392,33.9639992 136.392,34.132 L136.392,39.748 C136.392,39.9160008 136.304001,40 136.128,40 L135.12,40 C134.951999,40 134.868,39.9160008 134.868,39.748 L134.868,39.352 L134.82,39.352 C134.732,39.5680011 134.576001,39.7299995 134.352,39.838 C134.127999,39.9460005 133.892001,40 133.644,40 Z M134.868,37.768 L134.868,35.332 C134.868,35.2439996 134.82,35.2 134.724,35.2 L133.596,35.2 C133.339999,35.2 133.160001,35.2539995 133.056,35.362 C132.951999,35.4700005 132.9,35.6519987 132.9,35.908 L132.9,37.972 C132.9,38.2280013 132.951999,38.4099995 133.056,38.518 C133.160001,38.6260005 133.339999,38.68 133.596,38.68 L134.04,38.68 C134.592003,38.68 134.868,38.376003 134.868,37.768 Z" id="Nuweba" fill="#0B354B" fill-rule="nonzero"></path>
        </g>
    </g>
</svg>